<svg 
    xmlns="http://www.w3.org/2000/svg" 
    version="1.1" 
    xmlns:xlink="http://www.w3.org/1999/xlink" 
    xmlns:svgjs="http://svgjs.dev/svgjs" 
    width="1540" 
    height="850" 
    preserveAspectRatio="none" 
    viewBox="0 0 1540 850"
>
    <g mask="url(#SvgjsMask1024)" fill="none">
        <rect width="1540" height="850" x="0" y="0" fill="rgba(42, 120, 248, 1)"></rect>
        <path 
            d="M0,507.358C96.885,517.242,202.357,492.772,274.998,427.905C344.883,365.499,348.648,261.311,375.912,171.673C399.42,94.385,417.406,19.624,423.677,-60.916C431.623,-162.969,471.559,-274.83,417.443,-361.717C362.646,-449.698,248.941,-480.591,147.899,-503.698C51.014,-525.854,-47.759,-515.267,-143.903,-490.089C-242.426,-464.288,-358.819,-443.874,-412.064,-357.056C-465.132,-270.527,-415.213,-160.008,-408.454,-58.727C-403.177,20.353,-405.263,98.107,-376.755,172.058C-346.861,249.605,-303.242,319.997,-241.158,375.25C-171.274,437.445,-93.069,497.864,0,507.358" 
            fill="#1c6ff8"
        ></path>
        <path 
            d="M1540 1201.467C1615.349 1198.089 1694.493 1229.252 1761.593 1194.806 1830.59 1159.386 1882.069 1090.334 1902.3220000000001 1015.467 1921.458 944.731 1875.8980000000001 875.705 1867.613 802.896 1858.984 727.065 1892.813 643.981 1852.666 579.0740000000001 1811.24 512.098 1729.6779999999999 483.408 1654.839 458.894 1578.165 433.779 1491.356 401.822 1418.711 436.928 1346.692 471.732 1347.3899999999999 577.467 1291.357 634.55 1229.399 697.669 1110.436 701.1949999999999 1078.386 783.63 1046.647 865.264 1095.076 957.05 1135.827 1034.579 1175.036 1109.174 1227.368 1183.098 1305.261 1215.261 1379.2069999999999 1245.7939999999999 1460.078 1205.05 1540 1201.467" 
            fill="#3881f9"
        ></path>
    </g>
    <defs>
        <mask id="SvgjsMask1024">
            <rect width="1540" height="850" fill="#ffffff"></rect>
        </mask>
    </defs>
</svg>
